<svg width="24" height="24" viewBox="0 0 24 24" fill="none" xmlns="http://www.w3.org/2000/svg">
<path d="M11.4048 9.46478L2.69813 18.1785C1.81211 19.0652 1.81261 20.5022 2.69923 21.3883C3.58584 22.2743 5.02283 22.2738 5.90894 21.3871L14.6148 12.6748L11.4048 9.46478ZM16.8518 15.0068L16.75 15C16.3703 15 16.0565 15.2822 16.0068 15.6482L16 15.75V16.5H15.25C14.8703 16.5 14.5565 16.7822 14.5068 17.1482L14.5 17.25C14.5 17.6297 14.7822 17.9435 15.1482 17.9932L15.25 18H16V18.75C16 19.1297 16.2822 19.4435 16.6482 19.4932L16.75 19.5C17.1297 19.5 17.4435 19.2178 17.4932 18.8518L17.5 18.75V18H18.25C18.6297 18 18.9435 17.7178 18.9932 17.3518L19 17.25C19 16.8703 18.7178 16.5565 18.3518 16.5068L18.25 16.5H17.5V15.75C17.5 15.3703 17.2178 15.0565 16.8518 15.0068ZM13.3136 7.56538L13.1775 7.69092L12.4658 8.40378L15.6758 11.6138L16.3879 10.9003C17.2654 10.0213 17.2651 8.59738 16.3868 7.71848L16.2304 7.5715C15.3931 6.85388 14.1533 6.85191 13.3136 7.56538ZM6.85176 5.00685L6.74999 5C6.37029 5 6.0565 5.28215 6.00684 5.64823L5.99999 5.75V6.5H5.24999C4.87029 6.5 4.5565 6.78215 4.50684 7.14823L4.49999 7.25C4.49999 7.6297 4.78214 7.94349 5.14822 7.99315L5.24999 8H5.99999V8.75C5.99999 9.1297 6.28214 9.44349 6.64822 9.49315L6.74999 9.5C7.12969 9.5 7.44348 9.21785 7.49314 8.85177L7.49999 8.75V8H8.24999C8.62969 8 8.94348 7.71785 8.99314 7.35177L8.99999 7.25C8.99999 6.8703 8.71784 6.55651 8.35176 6.50685L8.24999 6.5H7.49999V5.75C7.49999 5.3703 7.21784 5.05651 6.85176 5.00685ZM18.8518 3.00685L18.75 3C18.3703 3 18.0565 3.28215 18.0068 3.64823L18 3.75V4.5H17.25C16.8703 4.5 16.5565 4.78215 16.5068 5.14823L16.5 5.25C16.5 5.6297 16.7822 5.94349 17.1482 5.99315L17.25 6H18V6.75C18 7.1297 18.2822 7.44349 18.6482 7.49315L18.75 7.5C19.1297 7.5 19.4435 7.21785 19.4932 6.85177L19.5 6.75V6H20.25C20.6297 6 20.9435 5.71785 20.9932 5.35177L21 5.25C21 4.8703 20.7178 4.55651 20.3518 4.50685L20.25 4.5H19.5V3.75C19.5 3.3703 19.2178 3.05651 18.8518 3.00685Z" fill="url(#paint0_linear_902_2045)"/>
<defs>
<linearGradient id="paint0_linear_902_2045" x1="11.4818" y1="3.00662" x2="11.4818" y2="21.9843" gradientUnits="userSpaceOnUse">
<stop stop-color="#32D4F5"/>
<stop offset="0.177083" stop-color="#31D0F1"/>
<stop offset="0.333333" stop-color="#2CC3E6"/>
<stop offset="0.494792" stop-color="#25AFD4"/>
<stop offset="0.8125" stop-color="#1C92BA"/>
<stop offset="1" stop-color="#198AB3"/>
</linearGradient>
</defs>
</svg>
