<svg width="25" height="31" viewBox="0 0 25 31" fill="none" xmlns="http://www.w3.org/2000/svg">
<path d="M12.4062 0.1875C13.2038 0.1875 14.1038 0.233073 15.1064 0.324219C16.109 0.415365 17.1117 0.57487 18.1143 0.802734C19.1169 1.0306 20.0739 1.33252 20.9854 1.7085C21.8968 2.08447 22.6488 2.56868 23.2412 3.16113C23.5944 3.50293 23.8792 3.87321 24.0957 4.27197C24.3122 4.67074 24.4261 5.13216 24.4375 5.65625V25.3438C24.4375 25.8564 24.3293 26.3122 24.1128 26.7109C23.8963 27.1097 23.6058 27.4857 23.2412 27.8389C22.6488 28.4199 21.9025 28.8984 21.0024 29.2744C20.1024 29.6504 19.1453 29.958 18.1313 30.1973C17.1174 30.4365 16.109 30.596 15.1064 30.6758C14.1038 30.7555 13.2038 30.8011 12.4062 30.8125C11.6087 30.8125 10.7087 30.7669 9.70605 30.6758C8.70345 30.5846 7.70085 30.4251 6.69824 30.1973C5.69564 29.9694 4.73861 29.6675 3.82715 29.2915C2.91569 28.9155 2.16374 28.4313 1.57129 27.8389C1.2181 27.4971 0.933268 27.1268 0.716797 26.728C0.500326 26.3293 0.386393 25.8678 0.375 25.3438V5.65625C0.375 5.14355 0.483236 4.68783 0.699707 4.28906C0.916178 3.8903 1.20671 3.51432 1.57129 3.16113C2.16374 2.58008 2.90999 2.10156 3.81006 1.72559C4.71012 1.34961 5.66716 1.04199 6.68115 0.802734C7.69515 0.563477 8.70345 0.403971 9.70605 0.324219C10.7087 0.244466 11.6087 0.198893 12.4062 0.1875ZM12.4062 2.375C11.8252 2.375 11.2214 2.39209 10.5947 2.42627C9.9681 2.46045 9.33577 2.52881 8.69775 2.63135C8.05973 2.73389 7.43311 2.85921 6.81787 3.00732C6.20264 3.15544 5.62158 3.34342 5.07471 3.57129C4.90381 3.63965 4.67594 3.74219 4.39111 3.87891C4.10628 4.01562 3.82715 4.18083 3.55371 4.37451C3.28027 4.5682 3.04671 4.76758 2.85303 4.97266C2.65934 5.17773 2.5625 5.4056 2.5625 5.65625C2.5625 5.7474 2.57959 5.83285 2.61377 5.9126C2.64795 5.99235 2.69352 6.0721 2.75049 6.15186C2.98975 6.51644 3.33154 6.83545 3.77588 7.10889C4.22021 7.38232 4.72721 7.62158 5.29688 7.82666C5.86654 8.03174 6.47038 8.20264 7.1084 8.33936C7.74642 8.47607 8.38444 8.59001 9.02246 8.68115C9.66048 8.7723 10.27 8.83496 10.8511 8.86914C11.4321 8.90332 11.9505 8.92611 12.4062 8.9375C12.862 8.9375 13.3804 8.92041 13.9614 8.88623C14.5425 8.85205 15.152 8.78939 15.79 8.69824C16.4281 8.6071 17.0661 8.49316 17.7041 8.35645C18.3421 8.21973 18.9403 8.04313 19.4985 7.82666C20.0568 7.61019 20.5638 7.37093 21.0195 7.10889C21.4753 6.84684 21.8228 6.52783 22.062 6.15186C22.119 6.0721 22.1646 5.99235 22.1987 5.9126C22.2329 5.83285 22.25 5.7474 22.25 5.65625C22.25 5.42839 22.1532 5.20622 21.9595 4.98975C21.7658 4.77327 21.5322 4.5682 21.2588 4.37451C20.9854 4.18083 20.7062 4.02132 20.4214 3.896C20.1366 3.77067 19.9087 3.66243 19.7378 3.57129C19.1909 3.35482 18.6099 3.17253 17.9946 3.02441C17.3794 2.8763 16.7585 2.75098 16.1318 2.64844C15.5052 2.5459 14.8729 2.47754 14.2349 2.44336C13.5968 2.40918 12.9873 2.38639 12.4062 2.375ZM12.4062 28.625C12.9873 28.625 13.5911 28.6079 14.2178 28.5737C14.8444 28.5396 15.4824 28.4712 16.1318 28.3687C16.7812 28.2661 17.4079 28.1408 18.0117 27.9927C18.6156 27.8446 19.1909 27.6566 19.7378 27.4287C19.9087 27.3604 20.1366 27.2578 20.4214 27.1211C20.7062 26.9844 20.9854 26.8192 21.2588 26.6255C21.5322 26.4318 21.7658 26.2324 21.9595 26.0273C22.1532 25.8223 22.25 25.5944 22.25 25.3438V22.0283C21.6006 22.4613 20.8657 22.8201 20.0454 23.105C19.2251 23.3898 18.3763 23.6177 17.499 23.7886C16.6217 23.9595 15.7445 24.0791 14.8672 24.1475C13.9899 24.2158 13.1696 24.25 12.4062 24.25C11.6429 24.25 10.8226 24.2158 9.94531 24.1475C9.06803 24.0791 8.19076 23.9595 7.31348 23.7886C6.4362 23.6177 5.5874 23.3898 4.76709 23.105C3.94678 22.8201 3.21191 22.4613 2.5625 22.0283V25.3438C2.5625 25.583 2.65934 25.8109 2.85303 26.0273C3.04671 26.2438 3.28027 26.4432 3.55371 26.6255C3.82715 26.8078 4.10628 26.9673 4.39111 27.104C4.67594 27.2407 4.90381 27.349 5.07471 27.4287C5.61019 27.6566 6.18555 27.8446 6.80078 27.9927C7.41602 28.1408 8.04264 28.2604 8.68066 28.3516C9.31868 28.4427 9.95101 28.5111 10.5776 28.5566C11.2043 28.6022 11.8138 28.625 12.4062 28.625ZM12.4062 22.0625C12.9873 22.0625 13.5911 22.0454 14.2178 22.0112C14.8444 21.9771 15.4824 21.9087 16.1318 21.8062C16.7812 21.7036 17.4079 21.5783 18.0117 21.4302C18.6156 21.2821 19.1909 21.0941 19.7378 20.8662C19.9087 20.7979 20.1366 20.6953 20.4214 20.5586C20.7062 20.4219 20.9854 20.2567 21.2588 20.063C21.5322 19.8693 21.7658 19.6699 21.9595 19.4648C22.1532 19.2598 22.25 19.0319 22.25 18.7812V15.4658C21.6006 15.8988 20.8657 16.2576 20.0454 16.5425C19.2251 16.8273 18.3763 17.0552 17.499 17.2261C16.6217 17.397 15.7445 17.5166 14.8672 17.585C13.9899 17.6533 13.1696 17.6875 12.4062 17.6875C11.6429 17.6875 10.8226 17.6533 9.94531 17.585C9.06803 17.5166 8.19076 17.397 7.31348 17.2261C6.4362 17.0552 5.5874 16.8273 4.76709 16.5425C3.94678 16.2576 3.21191 15.8988 2.5625 15.4658V18.7812C2.5625 19.0205 2.65934 19.2484 2.85303 19.4648C3.04671 19.6813 3.28027 19.8807 3.55371 20.063C3.82715 20.2453 4.10628 20.4048 4.39111 20.5415C4.67594 20.6782 4.90381 20.7865 5.07471 20.8662C5.61019 21.0941 6.18555 21.2821 6.80078 21.4302C7.41602 21.5783 8.04264 21.6979 8.68066 21.7891C9.31868 21.8802 9.95101 21.9486 10.5776 21.9941C11.2043 22.0397 11.8138 22.0625 12.4062 22.0625ZM12.4062 15.5C12.9987 15.5 13.6082 15.4829 14.2349 15.4487C14.8615 15.4146 15.4881 15.3462 16.1147 15.2437C16.7414 15.1411 17.368 15.0158 17.9946 14.8677C18.6213 14.7196 19.2023 14.5316 19.7378 14.3037C19.9087 14.2354 20.1366 14.1328 20.4214 13.9961C20.7062 13.8594 20.9854 13.6942 21.2588 13.5005C21.5322 13.3068 21.7658 13.1074 21.9595 12.9023C22.1532 12.6973 22.25 12.4694 22.25 12.2188V8.90332C21.6006 9.32487 20.8714 9.67806 20.0625 9.96289C19.2536 10.2477 18.4048 10.4756 17.5161 10.6465C16.6274 10.8174 15.7445 10.937 14.8672 11.0054C13.9899 11.0737 13.1696 11.1136 12.4062 11.125C11.6429 11.125 10.8226 11.0908 9.94531 11.0225C9.06803 10.9541 8.19076 10.8288 7.31348 10.6465C6.4362 10.4642 5.5874 10.2363 4.76709 9.96289C3.94678 9.68945 3.21191 9.33626 2.5625 8.90332V12.2188C2.5625 12.4466 2.65934 12.6688 2.85303 12.8853C3.04671 13.1017 3.28027 13.3068 3.55371 13.5005C3.82715 13.6942 4.10628 13.8537 4.39111 13.979C4.67594 14.1043 4.90381 14.2126 5.07471 14.3037C5.62158 14.5316 6.20264 14.7196 6.81787 14.8677C7.43311 15.0158 8.05404 15.1354 8.68066 15.2266C9.30729 15.3177 9.93962 15.3861 10.5776 15.4316C11.2157 15.4772 11.8252 15.5 12.4062 15.5Z" fill="url(#paint0_linear_907_2644)"/>
<defs>
<linearGradient id="paint0_linear_907_2644" x1="12.3616" y1="0.198144" x2="12.3616" y2="30.7029" gradientUnits="userSpaceOnUse">
<stop stop-color="#32D4F5"/>
<stop offset="0.177083" stop-color="#31D0F1"/>
<stop offset="0.333333" stop-color="#2CC3E6"/>
<stop offset="0.494792" stop-color="#25AFD4"/>
<stop offset="0.8125" stop-color="#1C92BA"/>
<stop offset="1" stop-color="#198AB3"/>
</linearGradient>
</defs>
</svg>
